<svg width="111" height="20" viewBox="0 0 111 20" fill="none" xmlns="http://www.w3.org/2000/svg"><path d="M5.376 4.744H.168V2.008h13.44v2.736H8.4V19H5.376V4.744zm12.917 4.344h.048c.224-.48.616-.912 1.176-1.296.576-.4 1.312-.6 2.208-.6.768 0 1.416.128 1.944.384.544.256.984.592 1.32 1.008.336.416.576.896.72 1.44.144.544.216 1.112.216 1.704V19h-2.88v-5.832c0-.32-.016-.672-.048-1.056a3.49 3.49 0 00-.264-1.104 1.888 1.888 0 00-.624-.864c-.288-.24-.68-.36-1.176-.36-.48 0-.888.08-1.224.24-.32.16-.592.376-.816.648-.208.272-.36.584-.456.936-.096.352-.144.72-.144 1.104V19h-2.88V.856h2.88v8.232zM29.195 7.48h2.88v1.824h.047c.32-.672.776-1.192 1.368-1.56.593-.368 1.273-.552 2.04-.552.176 0 .344.016.505.048.176.032.352.072.528.12v2.784a5.733 5.733 0 00-.72-.144 3.199 3.199 0 00-.673-.072c-.672 0-1.215.128-1.632.384a3 3 0 00-.935.84c-.209.32-.352.64-.433.96-.064.32-.096.56-.096.72V19h-2.88V7.48zm9.376 0h2.88V19h-2.88V7.48zm-.408-3.912c0-.464.168-.864.504-1.2.352-.352.792-.528 1.32-.528s.968.168 1.32.504c.368.32.552.728.552 1.224s-.184.912-.552 1.248c-.352.32-.792.48-1.32.48s-.968-.168-1.32-.504a1.719 1.719 0 01-.504-1.224zm5.034 3.912h3.144l3.072 8.064h.048l3.096-8.064h2.952L50.973 19h-3.072L43.197 7.48zm16.31 6.768c.095.864.431 1.536 1.007 2.016.576.48 1.272.72 2.088.72.72 0 1.32-.144 1.8-.432.496-.304.928-.68 1.296-1.128l2.064 1.56c-.672.832-1.424 1.424-2.256 1.776a6.646 6.646 0 01-2.616.528c-.864 0-1.68-.144-2.448-.432a5.872 5.872 0 01-1.992-1.224 5.997 5.997 0 01-1.344-1.896c-.32-.752-.48-1.584-.48-2.496 0-.912.16-1.736.48-2.472a5.926 5.926 0 011.344-1.92 5.872 5.872 0 011.992-1.224 6.914 6.914 0 012.448-.432c.8 0 1.528.144 2.184.432.672.272 1.24.672 1.704 1.2.48.528.848 1.184 1.104 1.968.272.768.408 1.656.408 2.664v.792h-8.784zm5.903-2.16c-.016-.848-.28-1.512-.792-1.992-.512-.496-1.224-.744-2.136-.744-.864 0-1.552.248-2.064.744-.496.496-.8 1.16-.912 1.992h5.904zm4.23-2.16V7.48h2.376V4.144h2.88V7.48h3.168v2.448h-3.168v5.04c0 .576.104 1.032.312 1.368.224.336.656.504 1.296.504.256 0 .536-.024.84-.072.304-.064.544-.16.72-.288v2.424c-.304.144-.68.24-1.128.288a7.958 7.958 0 01-1.152.096c-.768 0-1.4-.088-1.896-.264-.48-.16-.864-.408-1.152-.744-.272-.352-.464-.784-.576-1.296a9.724 9.724 0 01-.144-1.776v-5.28H69.64zm17.872 7.488h-.072c-.416.656-.944 1.136-1.584 1.44a5.088 5.088 0 01-2.112.432 5.735 5.735 0 01-1.56-.216 4.361 4.361 0 01-1.344-.648 3.39 3.39 0 01-.936-1.08c-.24-.432-.36-.936-.36-1.512 0-.624.112-1.152.336-1.584.224-.448.52-.816.888-1.104a4.57 4.57 0 011.32-.72 8.3 8.3 0 011.536-.384 11.29 11.29 0 011.632-.168 26.232 26.232 0 011.536-.048h.72v-.312c0-.72-.248-1.256-.744-1.608-.496-.368-1.128-.552-1.896-.552-.608 0-1.176.112-1.704.336a4.152 4.152 0 00-1.368.864L80.288 9.04a5.596 5.596 0 012.232-1.416 8.37 8.37 0 012.664-.432c.816 0 1.504.096 2.064.288.56.176 1.024.408 1.392.696.368.288.648.624.84 1.008.208.368.352.744.432 1.128.096.384.152.76.168 1.128.016.352.024.664.024.936V19h-2.592v-1.584zm-.168-3.576h-.6c-.4 0-.848.016-1.344.048a6.714 6.714 0 00-1.416.24c-.432.112-.8.288-1.104.528-.304.224-.456.544-.456.96 0 .272.056.504.168.696.128.176.288.328.48.456s.408.224.648.288c.24.048.48.072.72.072.992 0 1.72-.232 2.184-.696.48-.48.72-1.128.72-1.944v-.648zM93.25.856h2.88V19h-2.88V.856zm6.21 0h2.88v11.4l4.44-4.776h3.696l-4.944 5.232L110.788 19h-3.816l-4.584-5.88h-.048V19h-2.88V.856z" fill="#62D0DF"/></svg>